<svg version="1.1" xmlns="http://www.w3.org/2000/svg" xmlns:xlink="http://www.w3.org/1999/xlink" width="48px" height="48px" viewBox="0,0,256,256"><g fill="#f4f4f4" fill-rule="nonzero" stroke="none" stroke-width="1" stroke-linecap="butt" stroke-linejoin="miter" stroke-miterlimit="10" stroke-dasharray="" stroke-dashoffset="0" font-family="none" font-weight="none" font-size="none" text-anchor="none" style="mix-blend-mode: normal"><g transform="translate(0,-0.01259) scale(5.33333,5.33333)"><path d="M46.34,20.52l-21,-19c-0.76124,-0.68704 -1.91876,-0.68704 -2.68,0l-21,19c-0.82843,0.74006 -0.90006,2.01157 -0.16,2.84c0.74006,0.82843 2.01157,0.90006 2.84,0.16l19.66,-17.82l19.66,17.78c0.82843,0.74006 2.09994,0.66843 2.84,-0.16c0.74006,-0.82843 0.66843,-2.09994 -0.16,-2.84z"></path><path d="M42,26c-1.10457,0 -2,0.89543 -2,2v15h-32v-15c0,-1.10457 -0.89543,-2 -2,-2c-1.10457,0 -2,0.89543 -2,2v17c0,1.10457 0.89543,2 2,2h36c1.10457,0 2,-0.89543 2,-2v-17c0,-1.10457 -0.89543,-2 -2,-2z"></path></g></g></svg>